<svg width="28" height="27" viewBox="0 0 28 27" fill="none" xmlns="http://www.w3.org/2000/svg">
<path d="M14 0C6.29999 0 0 6.08584 0 13.5813C0 20.3584 5.12399 25.9834 11.816 27V17.512H8.25999V13.5813H11.816V10.5858C11.816 7.18374 13.902 5.31325 17.108 5.31325C18.634 5.31325 20.23 5.57078 20.23 5.57078V8.91868H18.466C16.73 8.91868 16.184 9.96235 16.184 11.0331V13.5813H20.076L19.446 17.512H16.184V27C19.483 26.4956 22.4871 24.8659 24.6539 22.4052C26.8207 19.9445 28.0075 16.8149 28 13.5813C28 6.08584 21.7 0 14 0Z" fill="#F7FFF7"/>
</svg>
