<svg width="28" height="27" viewBox="0 0 28 27" fill="none" xmlns="http://www.w3.org/2000/svg">
<path d="M8.12 0H19.88C24.36 0 28 3.51 28 7.83V19.17C28 21.2466 27.1445 23.2382 25.6217 24.7066C24.0989 26.1751 22.0336 27 19.88 27H8.12C3.64 27 0 23.49 0 19.17V7.83C0 5.75336 0.855498 3.76176 2.37829 2.29335C3.90109 0.824944 5.96644 0 8.12 0ZM7.84 2.7C6.50331 2.7 5.22137 3.21203 4.27618 4.12346C3.331 5.03489 2.8 6.27105 2.8 7.56V19.44C2.8 22.1265 5.054 24.3 7.84 24.3H20.16C21.4967 24.3 22.7786 23.788 23.7238 22.8765C24.669 21.9651 25.2 20.729 25.2 19.44V7.56C25.2 4.8735 22.946 2.7 20.16 2.7H7.84ZM21.35 4.725C21.8141 4.725 22.2592 4.90279 22.5874 5.21926C22.9156 5.53573 23.1 5.96495 23.1 6.4125C23.1 6.86005 22.9156 7.28928 22.5874 7.60574C22.2592 7.92221 21.8141 8.1 21.35 8.1C20.8859 8.1 20.4408 7.92221 20.1126 7.60574C19.7844 7.28928 19.6 6.86005 19.6 6.4125C19.6 5.96495 19.7844 5.53573 20.1126 5.21926C20.4408 4.90279 20.8859 4.725 21.35 4.725ZM14 6.75C15.8565 6.75 17.637 7.46116 18.9497 8.72703C20.2625 9.9929 21 11.7098 21 13.5C21 15.2902 20.2625 17.0071 18.9497 18.273C17.637 19.5388 15.8565 20.25 14 20.25C12.1435 20.25 10.363 19.5388 9.05025 18.273C7.7375 17.0071 7 15.2902 7 13.5C7 11.7098 7.7375 9.9929 9.05025 8.72703C10.363 7.46116 12.1435 6.75 14 6.75ZM14 9.45C12.8861 9.45 11.8178 9.87669 11.0302 10.6362C10.2425 11.3957 9.8 12.4259 9.8 13.5C9.8 14.5741 10.2425 15.6043 11.0302 16.3638C11.8178 17.1233 12.8861 17.55 14 17.55C15.1139 17.55 16.1822 17.1233 16.9698 16.3638C17.7575 15.6043 18.2 14.5741 18.2 13.5C18.2 12.4259 17.7575 11.3957 16.9698 10.6362C16.1822 9.87669 15.1139 9.45 14 9.45Z" fill="#F7FFF7"/>
</svg>
