<svg width="25" height="25" viewBox="0 0 25 25" fill="none" xmlns="http://www.w3.org/2000/svg">
<path d="M22.125 0.125C22.8543 0.125 23.5538 0.414731 24.0695 0.930456C24.5853 1.44618 24.875 2.14565 24.875 2.875V22.125C24.875 22.8543 24.5853 23.5538 24.0695 24.0695C23.5538 24.5853 22.8543 24.875 22.125 24.875H2.875C2.14565 24.875 1.44618 24.5853 0.930456 24.0695C0.414731 23.5538 0.125 22.8543 0.125 22.125V2.875C0.125 2.14565 0.414731 1.44618 0.930456 0.930456C1.44618 0.414731 2.14565 0.125 2.875 0.125H22.125ZM21.4375 21.4375V14.15C21.4375 12.9612 20.9652 11.821 20.1246 10.9804C19.284 10.1398 18.1438 9.6675 16.955 9.6675C15.7863 9.6675 14.425 10.3825 13.765 11.455V9.92875H9.92875V21.4375H13.765V14.6587C13.765 13.6 14.6175 12.7338 15.6763 12.7338C16.1868 12.7338 16.6764 12.9366 17.0374 13.2976C17.3984 13.6586 17.6012 14.1482 17.6012 14.6587V21.4375H21.4375ZM5.46 7.77C6.07265 7.77 6.66021 7.52663 7.09342 7.09342C7.52663 6.66021 7.77 6.07265 7.77 5.46C7.77 4.18125 6.73875 3.13625 5.46 3.13625C4.8437 3.13625 4.25265 3.38107 3.81686 3.81686C3.38107 4.25265 3.13625 4.8437 3.13625 5.46C3.13625 6.73875 4.18125 7.77 5.46 7.77ZM7.37125 21.4375V9.92875H3.5625V21.4375H7.37125Z" fill="#F7FFF7"/>
</svg>
