<svg width="29" height="24" viewBox="0 0 29 24" fill="none" xmlns="http://www.w3.org/2000/svg">
<path d="M28.8822 3.25C27.8234 3.73125 26.6822 4.0475 25.4997 4.19875C26.7097 3.47 27.6447 2.315 28.0847 0.92625C26.9434 1.61375 25.6784 2.095 24.3447 2.37C23.2584 1.1875 21.7322 0.5 19.9997 0.5C16.7684 0.5 14.1284 3.14 14.1284 6.39875C14.1284 6.86625 14.1834 7.32 14.2797 7.74625C9.38469 7.49875 5.02594 5.1475 2.12469 1.58625C1.61594 2.4525 1.32719 3.47 1.32719 4.5425C1.32719 6.59125 2.35844 8.40625 3.95344 9.4375C2.97719 9.4375 2.06969 9.1625 1.27219 8.75C1.27219 8.75 1.27219 8.75 1.27219 8.79125C1.27219 11.6512 3.30719 14.0437 6.00219 14.58C5.50719 14.7175 4.98469 14.7863 4.44844 14.7863C4.07719 14.7863 3.70594 14.745 3.34844 14.6763C4.09094 17 6.24969 18.7325 8.84844 18.7738C6.84094 20.3688 4.29719 21.3037 1.51969 21.3037C1.05219 21.3037 0.584688 21.2762 0.117188 21.2212C2.72969 22.8988 5.83719 23.875 9.16469 23.875C19.9997 23.875 25.9534 14.8825 25.9534 7.08625C25.9534 6.825 25.9534 6.5775 25.9397 6.31625C27.0947 5.49125 28.0847 4.44625 28.8822 3.25Z" fill="#F7FFF7"/>
</svg>
