<svg width="29" height="21" viewBox="0 0 29 21" fill="none" xmlns="http://www.w3.org/2000/svg">
<path d="M11.75 14.625L18.8862 10.5L11.75 6.375V14.625ZM27.645 3.85875C27.8237 4.505 27.9475 5.37125 28.03 6.47125C28.1262 7.57125 28.1675 8.52 28.1675 9.345L28.25 10.5C28.25 13.5113 28.03 15.725 27.645 17.1413C27.3012 18.3787 26.5037 19.1762 25.2663 19.52C24.62 19.6987 23.4375 19.8225 21.6225 19.905C19.835 20.0012 18.1987 20.0425 16.6863 20.0425L14.5 20.125C8.73875 20.125 5.15 19.905 3.73375 19.52C2.49625 19.1762 1.69875 18.3787 1.355 17.1413C1.17625 16.495 1.0525 15.6288 0.97 14.5288C0.87375 13.4288 0.8325 12.48 0.8325 11.655L0.75 10.5C0.75 7.48875 0.97 5.275 1.355 3.85875C1.69875 2.62125 2.49625 1.82375 3.73375 1.48C4.38 1.30125 5.5625 1.1775 7.3775 1.095C9.165 0.99875 10.8012 0.9575 12.3137 0.9575L14.5 0.875C20.2612 0.875 23.85 1.095 25.2663 1.48C26.5037 1.82375 27.3012 2.62125 27.645 3.85875Z" fill="#F7FFF7"/>
</svg>
